<svg width="23" height="23" viewBox="0 0 23 23" fill="none" xmlns="http://www.w3.org/2000/svg">
<path d="M16.2644 1H7.47681C3.90548 1 1 3.90548 1 7.47681V16.2644C1 19.8357 3.90548 22.7412 7.47681 22.7412H16.2644C19.8357 22.7412 22.7412 19.8357 22.7412 16.2644V7.47681C22.7411 3.90548 19.8356 1 16.2644 1ZM20.554 16.2644C20.554 18.6335 18.6334 20.554 16.2644 20.554H7.47681C5.10772 20.554 3.18716 18.6335 3.18716 16.2644V7.47681C3.18716 5.10768 5.10772 3.18716 7.47681 3.18716H16.2644C18.6334 3.18716 20.554 5.10768 20.554 7.47681V16.2644Z" fill="white" stroke="white" stroke-width="0.2"/>
<path d="M11.8699 6.4353C8.87284 6.4353 6.43457 8.87358 6.43457 11.8706C6.43457 14.8676 8.87284 17.3059 11.8699 17.3059C14.8669 17.3059 17.3052 14.8676 17.3052 11.8706C17.3052 8.87354 14.8669 6.4353 11.8699 6.4353ZM11.8699 15.1918C10.0356 15.1918 8.54871 13.7049 8.54871 11.8706C8.54871 10.0364 10.0357 8.54945 11.8699 8.54945C13.7041 8.54945 15.191 10.0364 15.191 11.8706C15.191 13.7048 13.7041 15.1918 11.8699 15.1918Z" fill="white" stroke="white" stroke-width="0.2"/>
<path d="M17.306 7.79412C18.0564 7.79412 18.6648 7.18576 18.6648 6.4353C18.6648 5.68484 18.0564 5.07648 17.306 5.07648C16.5555 5.07648 15.9471 5.68484 15.9471 6.4353C15.9471 7.18576 16.5555 7.79412 17.306 7.79412Z" fill="white"/>
</svg>
