<svg width="21" height="21" viewBox="0 0 21 21" fill="none" xmlns="http://www.w3.org/2000/svg">
<path d="M19.0176 0H1.51576C1.11376 0 0.728216 0.159696 0.443956 0.443956C0.159696 0.728216 0 1.11376 0 1.51576V19.0176C0 19.4196 0.159696 19.8051 0.443956 20.0894C0.728216 20.3736 1.11376 20.5333 1.51576 20.5333H19.0176C19.4196 20.5333 19.8051 20.3736 20.0894 20.0894C20.3736 19.8051 20.5333 19.4196 20.5333 19.0176V1.51576C20.5333 1.11376 20.3736 0.728216 20.0894 0.443956C19.8051 0.159696 19.4196 0 19.0176 0ZM6.12007 17.4918H3.03295V7.68574H6.12007V17.4918ZM4.57437 6.32683C4.22419 6.32486 3.88244 6.2192 3.59225 6.02319C3.30206 5.82717 3.07644 5.54959 2.94386 5.22547C2.81128 4.90135 2.77769 4.54522 2.84732 4.20202C2.91694 3.85883 3.08667 3.54395 3.33509 3.29712C3.5835 3.0503 3.89946 2.8826 4.2431 2.81517C4.58673 2.74775 4.94264 2.78363 5.2659 2.91829C5.58917 3.05295 5.86529 3.28034 6.05944 3.57178C6.25359 3.86323 6.35705 4.20565 6.35678 4.55583C6.36008 4.79029 6.31615 5.023 6.2276 5.24011C6.13905 5.45722 6.0077 5.65428 5.84137 5.81955C5.67504 5.98481 5.47714 6.1149 5.25946 6.20205C5.04179 6.28921 4.80879 6.33164 4.57437 6.32683ZM17.499 17.5004H14.4133V12.1432C14.4133 10.5633 13.7416 10.0756 12.8747 10.0756C11.9592 10.0756 11.0609 10.7657 11.0609 12.1831V17.5004H7.97378V7.69287H10.9426V9.05178H10.9825C11.2805 8.44861 12.3243 7.41767 13.917 7.41767C15.6396 7.41767 17.5004 8.44006 17.5004 11.4345L17.499 17.5004Z" fill="white"/>
</svg>
