<svg width="14" height="11" viewBox="0 0 14 11" fill="none" xmlns="http://www.w3.org/2000/svg">
<path d="M1.52204 4.69279L8.88027 1.65478C9.60662 1.33832 12.0699 0.325651 12.0699 0.325651C12.0699 0.325651 13.2068 -0.117392 13.112 0.95857C13.0805 1.40161 12.8278 2.95226 12.5752 4.6295L11.7857 9.59791C11.7857 9.59791 11.7225 10.3258 11.1856 10.4524C10.6488 10.5789 9.76452 10.0093 9.60662 9.88273C9.4803 9.78779 7.23809 8.36372 6.417 7.66751C6.19594 7.47764 5.94329 7.09788 6.44858 6.65484C7.58547 5.61052 8.94343 4.31304 9.76452 3.49025C10.1435 3.11049 10.5225 2.22441 8.94343 3.30037L4.49059 6.30674C4.49059 6.30674 3.98531 6.62319 3.0379 6.33838C2.09048 6.05357 0.98517 5.67382 0.98517 5.67382C0.98517 5.67382 0.227241 5.19913 1.52204 4.69279Z" fill="white"/>
</svg>
