<svg width="30" height="30" viewBox="0 0 30 30" fill="none" xmlns="http://www.w3.org/2000/svg">
<path d="M15 30C23.2843 30 30 23.2843 30 15C30 6.71573 23.2843 0 15 0C6.71573 0 0 6.71573 0 15C0 23.2843 6.71573 30 15 30Z" fill="#0048CE"/>
<path d="M8.52204 14.6928L15.8803 11.6548C16.6066 11.3383 19.0699 10.3257 19.0699 10.3257C19.0699 10.3257 20.2068 9.88261 20.112 10.9586C20.0805 11.4016 19.8278 12.9523 19.5752 14.6295L18.7857 19.5979C18.7857 19.5979 18.7225 20.3258 18.1856 20.4524C17.6488 20.5789 16.7645 20.0093 16.6066 19.8827C16.4803 19.7878 14.2381 18.3637 13.417 17.6675C13.1959 17.4776 12.9433 17.0979 13.4486 16.6548C14.5855 15.6105 15.9434 14.313 16.7645 13.4902C17.1435 13.1105 17.5225 12.2244 15.9434 13.3004L11.4906 16.3067C11.4906 16.3067 10.9853 16.6232 10.0379 16.3384C9.09048 16.0536 7.98517 15.6738 7.98517 15.6738C7.98517 15.6738 7.22724 15.1991 8.52204 14.6928Z" fill="white"/>
</svg>
