<svg width="30" height="30" viewBox="0 0 30 30" fill="none" xmlns="http://www.w3.org/2000/svg">
<path d="M15 30C23.2843 30 30 23.2843 30 15C30 6.71573 23.2843 0 15 0C6.71573 0 0 6.71573 0 15C0 23.2843 6.71573 30 15 30Z" fill="#0048CE"/>
<path d="M11.4009 20.0094L11.6579 20.1611C12.7378 20.7992 13.976 21.1366 15.2386 21.1373H15.2414C19.119 21.1373 22.275 17.9961 22.2764 14.1355C22.277 12.2645 21.546 10.5054 20.2178 9.18181C18.8894 7.85849 17.1233 7.12921 15.2439 7.12844C11.3633 7.12844 8.20735 10.2691 8.20589 14.1298C8.20538 15.4527 8.57711 16.7412 9.28145 17.8558L9.44886 18.1208L8.73798 20.7045L11.4009 20.0094ZM6.70587 22.7059L7.90667 18.3407C7.166 17.0632 6.77636 15.614 6.77697 14.1294C6.77877 9.48465 10.5756 5.70587 15.2415 5.70587C17.5057 5.70684 19.6308 6.5841 21.2289 8.17639C22.8269 9.76867 23.7066 11.8852 23.7059 14.1362C23.7039 18.7806 19.9063 22.5601 15.2415 22.5601C15.2412 22.5601 15.2417 22.5601 15.2415 22.5601H15.2379C13.8213 22.5596 12.4294 22.2059 11.1931 21.5346L6.70587 22.7059Z" fill="white"/>
<path fill-rule="evenodd" clip-rule="evenodd" d="M13.7796 11.3019C13.6506 11.0147 13.5148 11.009 13.3921 11.0039C13.2917 10.9997 13.1768 10.9999 13.062 10.9999C12.9472 10.9999 12.7606 11.0431 12.6028 11.2157C12.4449 11.3882 11.9999 11.8054 11.9999 12.6537C11.9999 13.5022 12.6172 14.322 12.7032 14.4372C12.7893 14.5521 13.8947 16.3488 15.6451 17.04C17.1 17.6144 17.3961 17.5001 17.7119 17.4713C18.0277 17.4426 18.7309 17.0543 18.8744 16.6517C19.0179 16.2491 19.0179 15.9039 18.9749 15.8319C18.9318 15.76 18.817 15.7168 18.6447 15.6307C18.4724 15.5444 17.6257 15.1272 17.4679 15.0697C17.31 15.0122 17.1952 14.9835 17.0803 15.1561C16.9655 15.3285 16.6356 15.7168 16.5351 15.8319C16.4346 15.9471 16.3341 15.9615 16.1619 15.8752C15.9896 15.7887 15.4349 15.6068 14.7769 15.0194C14.2649 14.5624 13.9192 13.9979 13.8187 13.8253C13.7183 13.6528 13.808 13.5594 13.8943 13.4735C13.9717 13.3962 14.0666 13.2721 14.1528 13.1715C14.2387 13.0708 14.2674 12.9989 14.3248 12.8839C14.3823 12.7688 14.3535 12.6681 14.3105 12.5818C14.2674 12.4956 13.9327 11.6428 13.7795 11.3019" fill="white"/>
</svg>
