<svg width="18" height="18" viewBox="0 0 18 18" fill="none" xmlns="http://www.w3.org/2000/svg">
<path d="M5.40088 15.0094L5.65789 15.1611C6.73784 15.7992 7.97599 16.1366 9.23862 16.1373H9.24137C13.119 16.1373 16.275 12.9961 16.2764 9.13548C16.277 7.26446 15.546 5.50536 14.2178 4.18181C12.8894 2.85849 11.1233 2.12921 9.24388 2.12844C5.3633 2.12844 2.20735 5.26912 2.20589 9.12975C2.20538 10.4527 2.57711 11.7412 3.28145 12.8558L3.44886 13.1208L2.73798 15.7045L5.40088 15.0094ZM0.705872 17.7059L1.90667 13.3407C1.166 12.0632 0.776359 10.614 0.776969 9.12936C0.778775 4.48465 4.57557 0.705872 9.24154 0.705872C11.5057 0.706843 13.6308 1.5841 15.2289 3.17639C16.8269 4.76867 17.7066 6.88522 17.7059 9.13616C17.7039 13.7806 13.9063 17.5601 9.24154 17.5601C9.2412 17.5601 9.24172 17.5601 9.24154 17.5601H9.23793C7.82135 17.5596 6.42942 17.2059 5.19314 16.5346L0.705872 17.7059Z" fill="white"/>
<path fill-rule="evenodd" clip-rule="evenodd" d="M7.77964 6.30192C7.6506 6.01474 7.51483 6.00899 7.3921 6.00394C7.29166 5.99966 7.17678 5.99994 7.06204 5.99994C6.94716 5.99994 6.76057 6.0431 6.6028 6.21566C6.44488 6.38823 5.99994 6.80537 5.99994 7.65374C5.99994 8.5022 6.61718 9.322 6.70317 9.43717C6.78932 9.55212 7.89468 11.3488 9.64514 12.04C11.1 12.6144 11.3961 12.5001 11.7119 12.4713C12.0277 12.4426 12.7309 12.0543 12.8744 11.6517C13.0179 11.2491 13.0179 10.9039 12.9749 10.8319C12.9318 10.76 12.817 10.7168 12.6447 10.6307C12.4724 10.5444 11.6257 10.1272 11.4679 10.0697C11.31 10.0122 11.1952 9.98348 11.0803 10.1561C10.9655 10.3285 10.6356 10.7168 10.5351 10.8319C10.4346 10.9471 10.3341 10.9615 10.1619 10.8752C9.98963 10.7887 9.43492 10.6068 8.77689 10.0194C8.26487 9.56236 7.91923 8.99791 7.81872 8.82526C7.71828 8.65284 7.808 8.55943 7.89435 8.47346C7.97173 8.39619 8.06664 8.27212 8.15278 8.17148C8.23871 8.07078 8.26738 7.99892 8.32479 7.88389C8.38227 7.7688 8.35353 7.66809 8.31049 7.58184C8.26738 7.49559 7.93269 6.64285 7.77954 6.30186" fill="white"/>
</svg>
